<svg xmlns="http://www.w3.org/2000/svg" width="18" height="18" viewBox="0 0 48 48">
  <path fill="#EA4335" d="M9 20.5A19 19 0 0 1 24 5c5.1 0 9.7 2 13.2 5.3L32.1 17C30.2 15.3 27.3 14 24 14 18.9 14 14.4 16.9 11.9 21.1z"/>
  <path fill="#FBBC05" d="M24 44c4.3 0 8.2-1.6 11.2-4.2l-6.3-4.8C27.8 35.6 26 36 24 36c-3.2 0-6-1.3-8.2-3.4L9.6 36.8C12.4 40.6 17.8 44 24 44z"/>
  <path fill="#34A853" d="M43 24.5c0-1.6-.1-3.1-.4-4.6H24v8.7h11.8c-.5 2.7-2 5-4.2 6.6L36 38c4.4-3 7-7.9 7-13.5z"/>
  <path fill="#4285F4" d="M9.6 11.2l6.9 5C17.8 14.7 20.7 13 24 13c3.1 0 6 1.3 8 3.4l6.1-6.2C33.9 6 29.2 4 24 4 17.8 4 12.4 7.4 9.6 11.2z"/>
</svg>
